<svg data-v-0dd9719b="" version="1.0" xmlns="http://www.w3.org/2000/svg" xmlns:xlink="http://www.w3.org/1999/xlink" width="100%" height="100%" viewBox="0 0 340.000000 250.000000" preserveAspectRatio="xMidYMid meet" color-interpolation-filters="sRGB" style="margin: auto;"> <rect data-v-0dd9719b="" x="0" y="0" width="100%" height="100%" fill="#fff" fill-opacity="1" class="background"></rect> <rect data-v-0dd9719b="" x="0" y="0" width="100%" height="100%" fill="url(#watermark)" fill-opacity="1" class="watermarklayer"></rect> <g data-v-0dd9719b="" fill="#333" class="icon-text-wrapper icon-svg-group iconsvg" transform="translate(47.785003662109375,96.20487403869629)"><g class="iconsvg-imagesvg" transform="translate(0,1.0763778686523438)"><g><rect fill="#333" fill-opacity="0" stroke-width="2" x="0" y="0" width="60" height="55.43749422526102" class="image-rect"></rect> <svg x="0" y="0" width="60" height="55.43749422526102" filtersec="colorsb2355189170" class="image-svg-svg primary" style="overflow: visible;"><svg xmlns="http://www.w3.org/2000/svg" viewBox="-0.001800537109375 0 95.66436004638672 88.38999938964844"><g fill-rule="evenodd"><path d="M48.5.19c-10.46.54-21 1.4-30.88 2.46L2.28 36.94c13.85-1.52 28.93-2.65 43.47-3.07a5.79 5.79 0 0 0 5.81-5.71A176.23 176.23 0 0 0 48.5.19z" fill="#ef4023"></path><path d="M93.79 47.32c-10 1-20.51 1.89-31 2.4A5.8 5.8 0 0 1 57 43.56c.14-15.2-1.51-34.65-4.64-43.56C88 0 100.88 14.65 93.79 47.32zM1.87 41.08c10-1 20.51-1.89 31-2.41a5.8 5.8 0 0 1 5.8 6.16c-.15 15.17 1.5 34.66 4.63 43.56-35.63 0-48.52-14.64-41.43-47.31z" fill="#00497c"></path><path d="M47.16 88.21c10.46-.54 21-1.4 30.88-2.47l15.34-34.28C79.53 53 64.45 54.11 49.91 54.52a5.79 5.79 0 0 0-5.81 5.71 176.48 176.48 0 0 0 3.06 27.98z" fill="#ef4023"></path></g></svg></svg> <!----></g></g> <g transform="translate(67,0)"><g data-gra="path-name" fill-rule="" class="tp-name iconsvg-namesvg" transform="translate(0,0)"><g transform="scale(1)"><g><path d="M20.34-25.33L24.34-25.33 24.34-29.52 20.34-29.52 20.34-25.33ZM35.73-13.37L35.73-18.95 30.91-18.95 31.09-14.49Q31.09-13.63 32.27-13.37L32.27-13.37 35.73-13.37ZM9.72-8.32L9.72-3.1Q9.72-2.25 10.57-2.25L10.57-2.25 34.88-2.25Q35.73-2.25 35.73-3.1L35.73-3.1 35.73-6.88 31.09-6.88Q26.95-6.88 25.65-8.59L25.65-8.59Q24.34-10.35 24.34-15.21L24.34-15.21 24.34-18.95 20.29-18.95Q19.75-9.45 14.08-7.42L14.08-7.42Q11.56-5.94 9.72-8.32L9.72-8.32ZM12.96-14.98L14.08-18.95 9.72-18.95 9.72-11.92Q11.97-13.28 12.96-14.98L12.96-14.98ZM44.23-36.23L44.23-32.45Q44.23-29.52 41.31-29.52L41.31-29.52 30.91-29.52 30.91-25.33 42.84-25.33 42.84 1.17Q42.84 4.09 39.91 4.09L39.91 4.09 5.89 4.09Q2.97 4.09 2.97 1.17L2.97 1.17 2.97-25.33 14.13-25.33 14.13-29.52 3.55-29.52Q0.63-29.52 0.63-32.45L0.63-32.45 0.63-36.23 44.23-36.23ZM69.08-9.81L71.78-14.49 64.03-14.49 63.09-12.82Q62.69-12.11 63.45-11.83L63.45-11.83 69.08-9.81ZM85.23-2.79L85.23-2.79Q87.75-1.4 85.37 1.48 82.98 4.37 80.46 2.83L80.46 2.83Q78.66 1.53 71.01-1.93L71.01-1.93Q64.53 2.75 54.13 3.96L54.13 3.96Q51.26 4.41 49.99 1.75L49.99 1.75 48.96 0.18Q47.3-2.25 50.22-2.48L50.22-2.48Q57.64-2.97 60.25-4.32L60.25-4.32Q63-5.35 60.25-6.34L60.25-6.34 55.03-8.23Q52.29-9.22 53.82-11.7L53.82-11.7 55.62-14.49 50.31-14.49Q47.38-14.49 47.38-17.41L47.38-17.41 47.38-20.65 58.86-20.65Q60.48-23.98 61.47-27.09L61.47-27.09 66.28-26.19Q69.16-25.7 68.13-22.95L68.13-22.95Q67.32-20.65 67.09-20.65L67.09-20.65 73.31-20.65 73.71-24.52 79.2-24.21Q80.06-24.16 80.06-25.02L80.06-25.02 80.06-27.77 54.77-27.77 54.77-26.1Q54.77-23.18 51.44-23.18 48.1-23.18 48.1-26.1L48.1-26.1 48.1-33.8 63.72-33.8 63.45-34.6Q62.46-37.39 66.19-38.2L66.19-38.2Q69.97-39.06 71.14-36.36L71.14-36.36Q70.97-36.95 72.13-33.8L72.13-33.8 87.07-33.8 87.07-26.1Q87.07-23.18 84.15-23.18L84.15-23.18 81.72-23.18 81.27-20.65 87.7-20.65 87.7-17.41Q87.7-14.49 84.78-14.49L84.78-14.49 79.69-14.49Q78.25-10.04 76.09-7.06L76.09-7.06Q84.02-3.65 85.23-2.79ZM96.66-14.22L96.66-14.22 99.5-12.46Q101.97-10.98 101.2-8.19L101.2-8.19Q99.67-2.7 98.19 1.03L98.19 1.03Q97.25 3.78 94.28 2.21 91.31 0.63 92.39-2.07L92.39-2.07Q94.36-6.48 96.66-14.22ZM97.29-24.75L99.18-23.71Q101.75-22.36 99.81-19.71L99.81-19.71Q97.88-17.1 95.4-18.63L95.4-18.63 93.47-19.84Q90.99-21.38 92.83-23.71L92.83-23.71Q94.72-26.1 97.29-24.75L97.29-24.75ZM111.78-16.2L111.78-16.2 109.84-16.2Q108.99-7.47 106.92-2.7L106.92-2.7Q106.65-1.93 107.5-1.89L107.5-1.89 108.72-1.8Q109.84-1.8 110.34-2.52L110.34-2.52Q111.28-3.92 111.78-16.2ZM116.14-26.23L110.38-26.23 110.25-22.09 117.86-22.09Q117.31-0.99 115.42 1.53L115.42 1.53Q114.21 3.24 112.63 3.55L112.63 3.55 110.97 3.78Q108.05 3.92 107.55 0.99L107.55 0.99Q107.78 0.54 106.56-1.75L106.56-1.75Q105.08 1.71 104.89 1.93L104.89 1.93Q103 4.18 100.84 2.02 98.69-0.14 100.35-2.52L100.35-2.52Q102.42-4.72 103.45-11.97L103.45-11.97Q104-15.84 104.13-18.68L104.13-18.68 104.4-26.23Q101.66-26.23 101.66-28.98L101.66-28.98 101.66-32.4 107.59-32.4Q106.61-34.56 106.69-34.2L106.69-34.2Q105.3-36.81 108.31-37.93 111.33-39.06 112.77-36.54L112.77-36.54 112.91-36.31Q114.39-33.8 111.69-32.67L111.69-32.67 111.11-32.4 117.67-32.4 117.67-29.61Q119.07-33.39 119.75-38.38L119.75-38.38 123.07-37.8Q125.95-37.35 125.46-34.47L125.46-34.47 125.23-33.52 133.83-33.52 133.83-30.29Q133.83-27.36 130.91-27.36L130.91-27.36 123.48-27.36 122.44-24.84 130.5-25.15 131.94-24.12Q134.32-22.41 132.7-20.02L132.7-20.02Q131.94-18.95 129.28-16.29L129.28-16.29 129.28-14.04 133.97-14.04 133.97-11.16Q133.97-8.23 131.04-8.23L131.04-8.23 129.28-8.23 129.28-2.16Q129.28 0.09 128.79 1.3L128.79 1.3Q128.34 2.52 127.03 3.19L127.03 3.19Q125.06 4.23 122.85 4.23L122.85 4.23Q119.92 4.23 119.16 1.44L119.16 1.44 118.26-1.71Q119.88-1.62 122.49-1.62L122.49-1.62Q123.25-1.62 123.25-2.25L123.25-2.25 123.25-8.23 121.05-8.23Q118.13-8.23 118.13-11.16L118.13-11.16 118.13-14.04 123.25-14.04 123.25-17.73Q124.02-18.4 124.74-19.21L124.74-19.21 122.67-19.21Q119.83-19.21 119.83-22.05L119.83-22.05Q117.54-23.54 116.73-23.85L116.73-23.85Q115.11-24.66 116.14-26.23L116.14-26.23ZM98.73-36.63L100.75-35.5Q103.32-34.11 101.34-31.5L101.34-31.5Q99.41-28.89 97.16-30.82L97.16-30.82Q97.52-30.46 94.91-31.81L94.91-31.81Q92.43-33.34 94.28-35.68L94.28-35.68Q96.17-38.02 98.73-36.63L98.73-36.63ZM142.2-35.87L173.43-35.87 173.43-32.04Q173.43-29.11 170.5-29.11L170.5-29.11 145.13-29.11Q142.2-29.11 142.2-32.04L142.2-32.04 142.2-35.87ZM178.06-23.31L178.06-19.44Q178.06-16.52 175.14-16.52L175.14-16.52 157.59-16.52Q154.26-10.93 150.16-6.21L150.16-6.21Q149.63-5.58 150.48-5.58L150.48-5.58 164.93-6.34 163.35-8.69 163.03-9.13Q161.41-11.56 164.43-13.14L164.43-13.14Q167.49-14.71 169.2-12.38L169.2-12.38Q174.01-5.98 176.22-1.8L176.22-1.8Q177.66 0.77 174.42 2.7L174.42 2.7Q171.22 4.68 169.92 2.07L169.92 2.07Q170.06 2.21 168.8 0L168.8 0Q146.66 1.57 144.36 1.93L144.36 1.93 143.78 2.07Q140.9 2.7 139.59-0.94L139.59-0.94Q138.33-4.59 140.13-5.49L140.13-5.49Q140.94-6.12 142.02-7.29 143.1-8.46 144.85-10.98L144.85-10.98 148.23-16.52 139.86-16.52Q136.94-16.52 136.94-19.44L136.94-19.44 136.94-23.31 178.06-23.31Z" transform="translate(-0.6299999952316284, 38.407752990722656)"></path></g> <!----> <!----> <!----> <!----> <!----> <!----> <!----></g></g> <g data-gra="path-slogan" fill-rule="" class="tp-slogan iconsvg-slogansvg" fill="#333" transform="translate(5,48.637752532958984)"><rect x="0" height="1" y="3.9750003814697266" width="38.96999740600586"></rect> <rect height="1" y="3.9750003814697266" width="38.96999740600586" x="128.4599952697754"></rect> <g transform="translate(41.96999740600586,0)"><g transform="scale(1)"><path d="M7.64-8.58L4.73-4.41L7.78 0L6.33 0L3.98-3.52L1.64 0L0.23 0L3.33-4.41L0.42-8.58L1.88-8.58L4.03-5.30L6.23-8.58L7.64-8.58ZM9.05-8.58L10.22-8.58L10.22 0L9.05 0L9.05-8.58ZM12.89-5.53L12-5.53L12-8.58L12.89-8.58L12.89-5.53ZM20.11 0L19.27-2.48L15.80-2.48L14.91 0L13.73 0L16.97-8.58L18.28-8.58L21.38 0L20.11 0ZM17.53-7.31L16.17-3.52L18.84-3.52L17.58-7.31L17.53-7.31ZM23.81-8.58L28.13-1.64L28.13-8.58L29.25-8.58L29.25 0L27.94 0L23.58-6.94L23.53-6.94L23.53 0L22.41 0L22.41-8.58L23.81-8.58ZM41.30-8.58L38.06-3.47L38.06 0L36.89 0L36.89-3.47L33.66-8.58L35.02-8.58L37.45-4.45L39.94-8.58L41.30-8.58ZM49.13-4.27L49.13-4.27Q48.94-7.64 46.13-7.83L46.13-7.83Q43.27-7.69 43.13-4.27L43.13-4.27Q43.27-0.94 46.13-0.80L46.13-0.80Q48.94-0.98 49.13-4.27ZM50.30-4.27L50.30-4.27Q50.02 0 46.13 0.14L46.13 0.14Q42.19 0 41.91-4.27L41.91-4.27Q42.14-8.72 46.13-8.81L46.13-8.81Q50.02-8.67 50.30-4.27ZM57.33-3.19L57.33-8.58L58.50-8.58L58.50-3.05Q58.36 0.05 54.98 0.14L54.98 0.14Q51.84 0.05 51.70-2.86L51.70-2.86L51.70-8.58L52.88-8.58L52.88-3.19Q52.92-0.84 55.03-0.80L55.03-0.80Q57.33-0.84 57.33-3.19L57.33-3.19ZM67.22-8.58L63.98-3.47L63.98 0L62.81 0L62.81-3.47L59.58-8.58L60.94-8.58L63.38-4.45L65.86-8.58L67.22-8.58ZM73.92-3.19L73.92-8.58L75.09-8.58L75.09-3.05Q74.95 0.05 71.58 0.14L71.58 0.14Q68.44 0.05 68.30-2.86L68.30-2.86L68.30-8.58L69.47-8.58L69.47-3.19Q69.52-0.84 71.63-0.80L71.63-0.80Q73.92-0.84 73.92-3.19L73.92-3.19ZM78.28-8.58L82.59-1.64L82.59-8.58L83.72-8.58L83.72 0L82.41 0L78.05-6.94L78-6.94L78 0L76.88 0L76.88-8.58L78.28-8.58Z" transform="translate(-0.234375, 8.8125)"></path></g></g></g></g></g><defs v-gra="od"></defs></svg>